<svg xmlns="http://www.w3.org/2000/svg" xmlns:xlink="http://www.w3.org/1999/xlink" width="1366" zoomAndPan="magnify" viewBox="0 0 1024.5 157.5" height="210" preserveAspectRatio="xMidYMid meet" version="1.0"><defs><g/><clipPath id="c0d293f40c"><rect x="0" width="424" y="0" height="36"/></clipPath><clipPath id="6a3b2c4763"><path d="M 71 50 L 132 50 L 132 79.996094 L 71 79.996094 Z M 71 50 " clip-rule="nonzero"/></clipPath><clipPath id="bb16e11f74"><path d="M 1.371094 0 L 166.597656 0 L 166.597656 79.996094 L 1.371094 79.996094 Z M 1.371094 0 " clip-rule="nonzero"/></clipPath></defs><g fill="#ffffff" fill-opacity="1"><g transform="translate(172.850557, 81.801809)"><g><path d="M 4.984375 0 L 4.984375 -55.8125 L 24.53125 -55.8125 C 31.3125 -55.8125 36.453125 -54.515625 39.953125 -51.921875 C 43.453125 -49.328125 45.203125 -45.523438 45.203125 -40.515625 C 45.203125 -37.785156 44.5 -35.378906 43.09375 -33.296875 C 41.6875 -31.210938 39.726562 -29.6875 37.21875 -28.71875 C 40.082031 -28 42.335938 -26.550781 43.984375 -24.375 C 45.640625 -22.207031 46.46875 -19.550781 46.46875 -16.40625 C 46.46875 -11.039062 44.753906 -6.976562 41.328125 -4.21875 C 37.898438 -1.457031 33.019531 -0.0507812 26.6875 0 Z M 16.484375 -24.3125 L 16.484375 -9.234375 L 26.34375 -9.234375 C 29.050781 -9.234375 31.164062 -9.878906 32.6875 -11.171875 C 34.207031 -12.460938 34.96875 -14.25 34.96875 -16.53125 C 34.96875 -21.632812 32.320312 -24.226562 27.03125 -24.3125 Z M 16.484375 -32.4375 L 25 -32.4375 C 30.800781 -32.539062 33.703125 -34.851562 33.703125 -39.375 C 33.703125 -41.90625 32.96875 -43.722656 31.5 -44.828125 C 30.03125 -45.941406 27.707031 -46.5 24.53125 -46.5 L 16.484375 -46.5 Z M 16.484375 -32.4375 "/></g></g></g><g fill="#ffffff" fill-opacity="1"><g transform="translate(222.955933, 81.801809)"><g><path d="M 27.5625 -31.09375 C 26.050781 -31.300781 24.722656 -31.40625 23.578125 -31.40625 C 19.390625 -31.40625 16.640625 -29.984375 15.328125 -27.140625 L 15.328125 0 L 4.25 0 L 4.25 -41.484375 L 14.71875 -41.484375 L 15.03125 -36.53125 C 17.25 -40.34375 20.328125 -42.25 24.265625 -42.25 C 25.492188 -42.25 26.644531 -42.082031 27.71875 -41.75 Z M 27.5625 -31.09375 "/></g></g></g><g fill="#ffffff" fill-opacity="1"><g transform="translate(251.593055, 81.801809)"><g><path d="M 15.953125 0 L 4.828125 0 L 4.828125 -41.484375 L 15.953125 -41.484375 Z M 4.171875 -52.21875 C 4.171875 -53.875 4.726562 -55.238281 5.84375 -56.3125 C 6.957031 -57.382812 8.472656 -57.921875 10.390625 -57.921875 C 12.273438 -57.921875 13.78125 -57.382812 14.90625 -56.3125 C 16.03125 -55.238281 16.59375 -53.875 16.59375 -52.21875 C 16.59375 -50.53125 16.023438 -49.148438 14.890625 -48.078125 C 13.753906 -47.003906 12.253906 -46.46875 10.390625 -46.46875 C 8.523438 -46.46875 7.019531 -47.003906 5.875 -48.078125 C 4.738281 -49.148438 4.171875 -50.53125 4.171875 -52.21875 Z M 4.171875 -52.21875 "/></g></g></g><g fill="#ffffff" fill-opacity="1"><g transform="translate(272.4096, 81.801809)"><g><path d="M 26.71875 -11.46875 C 26.71875 -12.820312 26.046875 -13.882812 24.703125 -14.65625 C 23.367188 -15.4375 21.21875 -16.132812 18.25 -16.75 C 8.382812 -18.820312 3.453125 -23.015625 3.453125 -29.328125 C 3.453125 -33.003906 4.976562 -36.078125 8.03125 -38.546875 C 11.082031 -41.015625 15.078125 -42.25 20.015625 -42.25 C 25.273438 -42.25 29.484375 -41.007812 32.640625 -38.53125 C 35.796875 -36.050781 37.375 -32.832031 37.375 -28.875 L 26.296875 -28.875 C 26.296875 -30.457031 25.785156 -31.765625 24.765625 -32.796875 C 23.742188 -33.828125 22.144531 -34.34375 19.96875 -34.34375 C 18.101562 -34.34375 16.660156 -33.921875 15.640625 -33.078125 C 14.617188 -32.234375 14.109375 -31.160156 14.109375 -29.859375 C 14.109375 -28.640625 14.6875 -27.648438 15.84375 -26.890625 C 17.007812 -26.140625 18.972656 -25.488281 21.734375 -24.9375 C 24.492188 -24.382812 26.820312 -23.765625 28.71875 -23.078125 C 34.570312 -20.929688 37.5 -17.210938 37.5 -11.921875 C 37.5 -8.140625 35.875 -5.078125 32.625 -2.734375 C 29.375 -0.398438 25.179688 0.765625 20.046875 0.765625 C 16.578125 0.765625 13.492188 0.144531 10.796875 -1.09375 C 8.097656 -2.332031 5.976562 -4.03125 4.4375 -6.1875 C 2.90625 -8.351562 2.140625 -10.6875 2.140625 -13.1875 L 12.65625 -13.1875 C 12.757812 -11.21875 13.488281 -9.707031 14.84375 -8.65625 C 16.195312 -7.613281 18.007812 -7.09375 20.28125 -7.09375 C 22.40625 -7.09375 24.007812 -7.492188 25.09375 -8.296875 C 26.175781 -9.097656 26.71875 -10.15625 26.71875 -11.46875 Z M 26.71875 -11.46875 "/></g></g></g><g fill="#ffffff" fill-opacity="1"><g transform="translate(312.777589, 81.801809)"><g><path d="M 41.640625 -20.359375 C 41.640625 -13.710938 40.21875 -8.53125 37.375 -4.8125 C 34.539062 -1.09375 30.582031 0.765625 25.5 0.765625 C 21 0.765625 17.40625 -0.957031 14.71875 -4.40625 L 14.21875 0 L 4.25 0 L 4.25 -58.890625 L 15.328125 -58.890625 L 15.328125 -37.765625 C 17.890625 -40.753906 21.253906 -42.25 25.421875 -42.25 C 30.484375 -42.25 34.453125 -40.390625 37.328125 -36.671875 C 40.203125 -32.953125 41.640625 -27.71875 41.640625 -20.96875 Z M 30.5625 -21.15625 C 30.5625 -25.351562 29.894531 -28.414062 28.5625 -30.34375 C 27.226562 -32.269531 25.25 -33.234375 22.625 -33.234375 C 19.09375 -33.234375 16.660156 -31.789062 15.328125 -28.90625 L 15.328125 -12.53125 C 16.679688 -9.625 19.140625 -8.171875 22.703125 -8.171875 C 26.273438 -8.171875 28.625 -9.929688 29.75 -13.453125 C 30.289062 -15.140625 30.5625 -17.707031 30.5625 -21.15625 Z M 30.5625 -21.15625 "/></g></g></g><g fill="#ffffff" fill-opacity="1"><g transform="translate(356.979195, 81.801809)"><g><path d="M 28.296875 0 C 27.785156 -1 27.414062 -2.238281 27.1875 -3.71875 C 24.5 -0.726562 21.007812 0.765625 16.71875 0.765625 C 12.65625 0.765625 9.285156 -0.40625 6.609375 -2.75 C 3.941406 -5.101562 2.609375 -8.070312 2.609375 -11.65625 C 2.609375 -16.050781 4.238281 -19.421875 7.5 -21.765625 C 10.757812 -24.117188 15.46875 -25.3125 21.625 -25.34375 L 26.71875 -25.34375 L 26.71875 -27.71875 C 26.71875 -29.632812 26.222656 -31.164062 25.234375 -32.3125 C 24.253906 -33.46875 22.707031 -34.046875 20.59375 -34.046875 C 18.71875 -34.046875 17.25 -33.597656 16.1875 -32.703125 C 15.132812 -31.804688 14.609375 -30.578125 14.609375 -29.015625 L 3.53125 -29.015625 C 3.53125 -31.421875 4.269531 -33.644531 5.75 -35.6875 C 7.226562 -37.738281 9.320312 -39.34375 12.03125 -40.5 C 14.75 -41.664062 17.789062 -42.25 21.15625 -42.25 C 26.269531 -42.25 30.328125 -40.960938 33.328125 -38.390625 C 36.335938 -35.828125 37.84375 -32.21875 37.84375 -27.5625 L 37.84375 -9.578125 C 37.863281 -5.648438 38.410156 -2.675781 39.484375 -0.65625 L 39.484375 0 Z M 19.125 -7.703125 C 20.757812 -7.703125 22.265625 -8.066406 23.640625 -8.796875 C 25.023438 -9.523438 26.050781 -10.503906 26.71875 -11.734375 L 26.71875 -18.859375 L 22.578125 -18.859375 C 17.035156 -18.859375 14.082031 -16.941406 13.71875 -13.109375 L 13.6875 -12.453125 C 13.6875 -11.078125 14.171875 -9.941406 15.140625 -9.046875 C 16.109375 -8.148438 17.4375 -7.703125 19.125 -7.703125 Z M 19.125 -7.703125 "/></g></g></g><g fill="#ffffff" fill-opacity="1"><g transform="translate(399.072295, 81.801809)"><g><path d="M 14.453125 -41.484375 L 14.796875 -36.6875 C 17.765625 -40.394531 21.738281 -42.25 26.71875 -42.25 C 31.113281 -42.25 34.382812 -40.957031 36.53125 -38.375 C 38.675781 -35.789062 39.773438 -31.929688 39.828125 -26.796875 L 39.828125 0 L 28.75 0 L 28.75 -26.53125 C 28.75 -28.882812 28.238281 -30.585938 27.21875 -31.640625 C 26.195312 -32.703125 24.5 -33.234375 22.125 -33.234375 C 19 -33.234375 16.660156 -31.90625 15.109375 -29.25 L 15.109375 0 L 4.03125 0 L 4.03125 -41.484375 Z M 14.453125 -41.484375 "/></g></g></g><g fill="#ffffff" fill-opacity="1"><g transform="translate(443.043906, 81.801809)"><g><path d="M 23.34375 0.765625 C 17.257812 0.765625 12.304688 -1.097656 8.484375 -4.828125 C 4.671875 -8.554688 2.765625 -13.53125 2.765625 -19.75 L 2.765625 -20.8125 C 2.765625 -24.976562 3.566406 -28.703125 5.171875 -31.984375 C 6.785156 -35.273438 9.066406 -37.804688 12.015625 -39.578125 C 14.972656 -41.359375 18.34375 -42.25 22.125 -42.25 C 27.789062 -42.25 32.253906 -40.457031 35.515625 -36.875 C 38.773438 -33.300781 40.40625 -28.226562 40.40625 -21.65625 L 40.40625 -17.140625 L 14 -17.140625 C 14.351562 -14.429688 15.429688 -12.257812 17.234375 -10.625 C 19.035156 -8.988281 21.316406 -8.171875 24.078125 -8.171875 C 28.347656 -8.171875 31.679688 -9.71875 34.078125 -12.8125 L 39.53125 -6.703125 C 37.863281 -4.359375 35.609375 -2.523438 32.765625 -1.203125 C 29.929688 0.109375 26.789062 0.765625 23.34375 0.765625 Z M 22.078125 -33.28125 C 19.878906 -33.28125 18.097656 -32.535156 16.734375 -31.046875 C 15.367188 -29.566406 14.492188 -27.445312 14.109375 -24.6875 L 29.515625 -24.6875 L 29.515625 -25.578125 C 29.460938 -28.023438 28.796875 -29.921875 27.515625 -31.265625 C 26.242188 -32.609375 24.429688 -33.28125 22.078125 -33.28125 Z M 22.078125 -33.28125 "/></g></g></g><g fill="#ffffff" fill-opacity="1"><g transform="translate(485.486957, 81.801809)"><g/></g></g><g fill="#ffffff" fill-opacity="1"><g transform="translate(504.923399, 81.801809)"><g><path d="M 26.953125 -22.578125 L 13.84375 -22.578125 L 13.84375 0 L 6.4375 0 L 6.4375 -55.8125 L 24.921875 -55.8125 C 31.203125 -55.8125 36.035156 -54.378906 39.421875 -51.515625 C 42.816406 -48.660156 44.515625 -44.5 44.515625 -39.03125 C 44.515625 -35.550781 43.570312 -32.519531 41.6875 -29.9375 C 39.8125 -27.351562 37.203125 -25.425781 33.859375 -24.15625 L 46.96875 -0.453125 L 46.96875 0 L 39.0625 0 Z M 13.84375 -28.59375 L 25.15625 -28.59375 C 28.800781 -28.59375 31.703125 -29.539062 33.859375 -31.4375 C 36.023438 -33.332031 37.109375 -35.863281 37.109375 -39.03125 C 37.109375 -42.476562 36.078125 -45.117188 34.015625 -46.953125 C 31.960938 -48.796875 28.992188 -49.734375 25.109375 -49.765625 L 13.84375 -49.765625 Z M 13.84375 -28.59375 "/></g></g></g><g fill="#ffffff" fill-opacity="1"><g transform="translate(553.265311, 81.801809)"><g><path d="M 3.484375 -21.125 C 3.484375 -25.1875 4.28125 -28.835938 5.875 -32.078125 C 7.476562 -35.328125 9.703125 -37.832031 12.546875 -39.59375 C 15.398438 -41.363281 18.65625 -42.25 22.3125 -42.25 C 27.957031 -42.25 32.523438 -40.289062 36.015625 -36.375 C 39.503906 -32.46875 41.25 -27.269531 41.25 -20.78125 L 41.25 -20.28125 C 41.25 -16.238281 40.472656 -12.613281 38.921875 -9.40625 C 37.378906 -6.195312 35.171875 -3.695312 32.296875 -1.90625 C 29.421875 -0.125 26.117188 0.765625 22.390625 0.765625 C 16.765625 0.765625 12.207031 -1.1875 8.71875 -5.09375 C 5.226562 -9.007812 3.484375 -14.1875 3.484375 -20.625 Z M 10.625 -20.28125 C 10.625 -15.675781 11.6875 -11.976562 13.8125 -9.1875 C 15.945312 -6.40625 18.804688 -5.015625 22.390625 -5.015625 C 25.992188 -5.015625 28.851562 -6.425781 30.96875 -9.25 C 33.09375 -12.082031 34.15625 -16.039062 34.15625 -21.125 C 34.15625 -25.675781 33.078125 -29.363281 30.921875 -32.1875 C 28.765625 -35.007812 25.894531 -36.421875 22.3125 -36.421875 C 18.8125 -36.421875 15.988281 -35.023438 13.84375 -32.234375 C 11.695312 -29.453125 10.625 -25.46875 10.625 -20.28125 Z M 10.625 -20.28125 "/></g></g></g><g fill="#ffffff" fill-opacity="1"><g transform="translate(598.041954, 81.801809)"><g><path d="M 3.484375 -21.125 C 3.484375 -25.1875 4.28125 -28.835938 5.875 -32.078125 C 7.476562 -35.328125 9.703125 -37.832031 12.546875 -39.59375 C 15.398438 -41.363281 18.65625 -42.25 22.3125 -42.25 C 27.957031 -42.25 32.523438 -40.289062 36.015625 -36.375 C 39.503906 -32.46875 41.25 -27.269531 41.25 -20.78125 L 41.25 -20.28125 C 41.25 -16.238281 40.472656 -12.613281 38.921875 -9.40625 C 37.378906 -6.195312 35.171875 -3.695312 32.296875 -1.90625 C 29.421875 -0.125 26.117188 0.765625 22.390625 0.765625 C 16.765625 0.765625 12.207031 -1.1875 8.71875 -5.09375 C 5.226562 -9.007812 3.484375 -14.1875 3.484375 -20.625 Z M 10.625 -20.28125 C 10.625 -15.675781 11.6875 -11.976562 13.8125 -9.1875 C 15.945312 -6.40625 18.804688 -5.015625 22.390625 -5.015625 C 25.992188 -5.015625 28.851562 -6.425781 30.96875 -9.25 C 33.09375 -12.082031 34.15625 -16.039062 34.15625 -21.125 C 34.15625 -25.675781 33.078125 -29.363281 30.921875 -32.1875 C 28.765625 -35.007812 25.894531 -36.421875 22.3125 -36.421875 C 18.8125 -36.421875 15.988281 -35.023438 13.84375 -32.234375 C 11.695312 -29.453125 10.625 -25.46875 10.625 -20.28125 Z M 10.625 -20.28125 "/></g></g></g><g fill="#ffffff" fill-opacity="1"><g transform="translate(642.818597, 81.801809)"><g><path d="M 8.859375 0 L 8.859375 -36 L 2.296875 -36 L 2.296875 -41.484375 L 8.859375 -41.484375 L 8.859375 -45.734375 C 8.859375 -50.179688 10.046875 -53.617188 12.421875 -56.046875 C 14.796875 -58.472656 18.15625 -59.6875 22.5 -59.6875 C 24.132812 -59.6875 25.757812 -59.472656 27.375 -59.046875 L 26.984375 -53.296875 C 25.785156 -53.523438 24.507812 -53.640625 23.15625 -53.640625 C 20.851562 -53.640625 19.078125 -52.96875 17.828125 -51.625 C 16.578125 -50.28125 15.953125 -48.359375 15.953125 -45.859375 L 15.953125 -41.484375 L 24.796875 -41.484375 L 24.796875 -36 L 15.953125 -36 L 15.953125 0 Z M 8.859375 0 "/></g></g></g><g fill="#ffffff" fill-opacity="1"><g transform="translate(670.075618, 81.801809)"><g/></g></g><g fill="#ffffff" fill-opacity="1"><g transform="translate(689.512071, 81.801809)"><g><path d="M 13.84375 -21.859375 L 13.84375 0 L 6.484375 0 L 6.484375 -55.8125 L 27.0625 -55.8125 C 33.175781 -55.8125 37.960938 -54.253906 41.421875 -51.140625 C 44.890625 -48.023438 46.625 -43.898438 46.625 -38.765625 C 46.625 -33.335938 44.925781 -29.160156 41.53125 -26.234375 C 38.144531 -23.316406 33.296875 -21.859375 26.984375 -21.859375 Z M 13.84375 -27.875 L 27.0625 -27.875 C 31 -27.875 34.015625 -28.800781 36.109375 -30.65625 C 38.210938 -32.507812 39.265625 -35.1875 39.265625 -38.6875 C 39.265625 -42.007812 38.210938 -44.664062 36.109375 -46.65625 C 34.015625 -48.644531 31.140625 -49.679688 27.484375 -49.765625 L 13.84375 -49.765625 Z M 13.84375 -27.875 "/></g></g></g><g fill="#ffffff" fill-opacity="1"><g transform="translate(739.042376, 81.801809)"><g><path d="M 30.984375 0 C 30.566406 -0.820312 30.234375 -2.28125 29.984375 -4.375 C 26.679688 -0.945312 22.742188 0.765625 18.171875 0.765625 C 14.078125 0.765625 10.71875 -0.390625 8.09375 -2.703125 C 5.476562 -5.015625 4.171875 -7.945312 4.171875 -11.5 C 4.171875 -15.820312 5.8125 -19.175781 9.09375 -21.5625 C 12.382812 -23.957031 17.007812 -25.15625 22.96875 -25.15625 L 29.859375 -25.15625 L 29.859375 -28.40625 C 29.859375 -30.882812 29.117188 -32.859375 27.640625 -34.328125 C 26.160156 -35.796875 23.972656 -36.53125 21.078125 -36.53125 C 18.554688 -36.53125 16.4375 -35.890625 14.71875 -34.609375 C 13.007812 -33.335938 12.15625 -31.796875 12.15625 -29.984375 L 5.015625 -29.984375 C 5.015625 -32.046875 5.75 -34.039062 7.21875 -35.96875 C 8.695312 -37.90625 10.691406 -39.4375 13.203125 -40.5625 C 15.722656 -41.6875 18.488281 -42.25 21.5 -42.25 C 26.28125 -42.25 30.023438 -41.050781 32.734375 -38.65625 C 35.441406 -36.269531 36.847656 -32.984375 36.953125 -28.796875 L 36.953125 -9.703125 C 36.953125 -5.890625 37.441406 -2.859375 38.421875 -0.609375 L 38.421875 0 Z M 19.203125 -5.40625 C 21.429688 -5.40625 23.539062 -5.976562 25.53125 -7.125 C 27.519531 -8.28125 28.960938 -9.773438 29.859375 -11.609375 L 29.859375 -20.125 L 24.3125 -20.125 C 15.613281 -20.125 11.265625 -17.582031 11.265625 -12.5 C 11.265625 -10.269531 12.003906 -8.53125 13.484375 -7.28125 C 14.972656 -6.03125 16.878906 -5.40625 19.203125 -5.40625 Z M 19.203125 -5.40625 "/></g></g></g><g fill="#ffffff" fill-opacity="1"><g transform="translate(781.748877, 81.801809)"><g><path d="M 13.078125 0 L 5.984375 0 L 5.984375 -41.484375 L 13.078125 -41.484375 Z M 5.40625 -52.484375 C 5.40625 -53.628906 5.753906 -54.597656 6.453125 -55.390625 C 7.160156 -56.191406 8.203125 -56.59375 9.578125 -56.59375 C 10.960938 -56.59375 12.007812 -56.191406 12.71875 -55.390625 C 13.4375 -54.597656 13.796875 -53.628906 13.796875 -52.484375 C 13.796875 -51.335938 13.4375 -50.378906 12.71875 -49.609375 C 12.007812 -48.835938 10.960938 -48.453125 9.578125 -48.453125 C 8.203125 -48.453125 7.160156 -48.835938 6.453125 -49.609375 C 5.753906 -50.378906 5.40625 -51.335938 5.40625 -52.484375 Z M 5.40625 -52.484375 "/></g></g></g><g fill="#ffffff" fill-opacity="1"><g transform="translate(800.801969, 81.801809)"><g><path d="M 12.078125 -41.484375 L 12.3125 -36.265625 C 15.476562 -40.253906 19.617188 -42.25 24.734375 -42.25 C 33.492188 -42.25 37.914062 -37.300781 38 -27.40625 L 38 0 L 30.90625 0 L 30.90625 -27.453125 C 30.875 -30.441406 30.1875 -32.648438 28.84375 -34.078125 C 27.507812 -35.515625 25.421875 -36.234375 22.578125 -36.234375 C 20.273438 -36.234375 18.253906 -35.617188 16.515625 -34.390625 C 14.785156 -33.160156 13.429688 -31.550781 12.453125 -29.5625 L 12.453125 0 L 5.375 0 L 5.375 -41.484375 Z M 12.078125 -41.484375 "/></g></g></g><g fill="#ffffff" fill-opacity="1"><g transform="translate(844.121826, 81.801809)"><g><path d="M 14.984375 -51.53125 L 14.984375 -41.484375 L 22.734375 -41.484375 L 22.734375 -36 L 14.984375 -36 L 14.984375 -10.28125 C 14.984375 -8.613281 15.328125 -7.363281 16.015625 -6.53125 C 16.710938 -5.707031 17.890625 -5.296875 19.546875 -5.296875 C 20.367188 -5.296875 21.492188 -5.445312 22.921875 -5.75 L 22.921875 0 C 21.054688 0.507812 19.242188 0.765625 17.484375 0.765625 C 14.316406 0.765625 11.925781 -0.191406 10.3125 -2.109375 C 8.695312 -4.023438 7.890625 -6.75 7.890625 -10.28125 L 7.890625 -36 L 0.34375 -36 L 0.34375 -41.484375 L 7.890625 -41.484375 L 7.890625 -51.53125 Z M 14.984375 -51.53125 "/></g></g></g><g fill="#ffffff" fill-opacity="1"><g transform="translate(869.768738, 81.801809)"><g><path d="M 13.078125 0 L 5.984375 0 L 5.984375 -41.484375 L 13.078125 -41.484375 Z M 5.40625 -52.484375 C 5.40625 -53.628906 5.753906 -54.597656 6.453125 -55.390625 C 7.160156 -56.191406 8.203125 -56.59375 9.578125 -56.59375 C 10.960938 -56.59375 12.007812 -56.191406 12.71875 -55.390625 C 13.4375 -54.597656 13.796875 -53.628906 13.796875 -52.484375 C 13.796875 -51.335938 13.4375 -50.378906 12.71875 -49.609375 C 12.007812 -48.835938 10.960938 -48.453125 9.578125 -48.453125 C 8.203125 -48.453125 7.160156 -48.835938 6.453125 -49.609375 C 5.753906 -50.378906 5.40625 -51.335938 5.40625 -52.484375 Z M 5.40625 -52.484375 "/></g></g></g><g fill="#ffffff" fill-opacity="1"><g transform="translate(888.821807, 81.801809)"><g><path d="M 12.078125 -41.484375 L 12.3125 -36.265625 C 15.476562 -40.253906 19.617188 -42.25 24.734375 -42.25 C 33.492188 -42.25 37.914062 -37.300781 38 -27.40625 L 38 0 L 30.90625 0 L 30.90625 -27.453125 C 30.875 -30.441406 30.1875 -32.648438 28.84375 -34.078125 C 27.507812 -35.515625 25.421875 -36.234375 22.578125 -36.234375 C 20.273438 -36.234375 18.253906 -35.617188 16.515625 -34.390625 C 14.785156 -33.160156 13.429688 -31.550781 12.453125 -29.5625 L 12.453125 0 L 5.375 0 L 5.375 -41.484375 Z M 12.078125 -41.484375 "/></g></g></g><g fill="#ffffff" fill-opacity="1"><g transform="translate(932.141664, 81.801809)"><g><path d="M 3.6875 -21.078125 C 3.6875 -27.546875 5.179688 -32.691406 8.171875 -36.515625 C 11.160156 -40.335938 15.117188 -42.25 20.046875 -42.25 C 25.109375 -42.25 29.054688 -40.457031 31.890625 -36.875 L 32.234375 -41.484375 L 38.71875 -41.484375 L 38.71875 -1 C 38.71875 4.363281 37.125 8.59375 33.9375 11.6875 C 30.757812 14.78125 26.488281 16.328125 21.125 16.328125 C 18.132812 16.328125 15.207031 15.6875 12.34375 14.40625 C 9.476562 13.132812 7.289062 11.382812 5.78125 9.15625 L 9.46875 4.90625 C 12.507812 8.664062 16.226562 10.546875 20.625 10.546875 C 24.070312 10.546875 26.757812 9.570312 28.6875 7.625 C 30.625 5.6875 31.59375 2.953125 31.59375 -0.578125 L 31.59375 -4.140625 C 28.75 -0.867188 24.875 0.765625 19.96875 0.765625 C 15.113281 0.765625 11.1875 -1.1875 8.1875 -5.09375 C 5.1875 -9.007812 3.6875 -14.335938 3.6875 -21.078125 Z M 10.8125 -20.28125 C 10.8125 -15.601562 11.769531 -11.925781 13.6875 -9.25 C 15.601562 -6.582031 18.285156 -5.25 21.734375 -5.25 C 26.210938 -5.25 29.5 -7.28125 31.59375 -11.34375 L 31.59375 -30.28125 C 29.414062 -34.25 26.15625 -36.234375 21.8125 -36.234375 C 18.363281 -36.234375 15.664062 -34.890625 13.71875 -32.203125 C 11.78125 -29.515625 10.8125 -25.539062 10.8125 -20.28125 Z M 10.8125 -20.28125 "/></g></g></g><g fill="#ffffff" fill-opacity="1"><g transform="translate(976.198649, 81.801809)"><g/></g></g><g fill="#ffffff" fill-opacity="1"><g transform="translate(995.635091, 81.801809)"><g/></g></g><g transform="matrix(1, 0, 0, 1, 313, 101)"><g clip-path="url(#c0d293f40c)"><g fill="#ffffff" fill-opacity="1"><g transform="translate(1.077614, 26.991317)"><g><path d="M 1.171875 -7.515625 L 5.703125 -7.953125 C 5.972656 -6.429688 6.523438 -5.3125 7.359375 -4.59375 C 8.203125 -3.882812 9.332031 -3.53125 10.75 -3.53125 C 12.25 -3.53125 13.378906 -3.847656 14.140625 -4.484375 C 14.910156 -5.117188 15.296875 -5.863281 15.296875 -6.71875 C 15.296875 -7.257812 15.132812 -7.722656 14.8125 -8.109375 C 14.488281 -8.492188 13.925781 -8.828125 13.125 -9.109375 C 12.582031 -9.296875 11.335938 -9.632812 9.390625 -10.125 C 6.890625 -10.738281 5.132812 -11.5 4.125 -12.40625 C 2.707031 -13.675781 2 -15.226562 2 -17.0625 C 2 -18.226562 2.332031 -19.320312 3 -20.34375 C 3.664062 -21.375 4.625 -22.15625 5.875 -22.6875 C 7.132812 -23.226562 8.65625 -23.5 10.4375 -23.5 C 13.332031 -23.5 15.515625 -22.863281 16.984375 -21.59375 C 18.453125 -20.320312 19.222656 -18.625 19.296875 -16.5 L 14.625 -16.296875 C 14.425781 -17.484375 14 -18.335938 13.34375 -18.859375 C 12.6875 -19.378906 11.703125 -19.640625 10.390625 -19.640625 C 9.035156 -19.640625 7.972656 -19.359375 7.203125 -18.796875 C 6.710938 -18.441406 6.46875 -17.96875 6.46875 -17.375 C 6.46875 -16.820312 6.695312 -16.351562 7.15625 -15.96875 C 7.738281 -15.46875 9.164062 -14.953125 11.4375 -14.421875 C 13.707031 -13.890625 15.382812 -13.335938 16.46875 -12.765625 C 17.5625 -12.191406 18.414062 -11.40625 19.03125 -10.40625 C 19.644531 -9.414062 19.953125 -8.191406 19.953125 -6.734375 C 19.953125 -5.410156 19.582031 -4.171875 18.84375 -3.015625 C 18.113281 -1.859375 17.078125 -1 15.734375 -0.4375 C 14.390625 0.125 12.710938 0.40625 10.703125 0.40625 C 7.785156 0.40625 5.539062 -0.265625 3.96875 -1.609375 C 2.40625 -2.960938 1.472656 -4.929688 1.171875 -7.515625 Z M 1.171875 -7.515625 "/></g></g></g><g fill="#ffffff" fill-opacity="1"><g transform="translate(48.431319, 26.991317)"><g><path d="M 1.40625 -11.40625 C 1.40625 -13.757812 1.753906 -15.738281 2.453125 -17.34375 C 2.984375 -18.519531 3.703125 -19.570312 4.609375 -20.5 C 5.515625 -21.4375 6.507812 -22.132812 7.59375 -22.59375 C 9.03125 -23.195312 10.691406 -23.5 12.578125 -23.5 C 15.984375 -23.5 18.707031 -22.441406 20.75 -20.328125 C 22.789062 -18.222656 23.8125 -15.285156 23.8125 -11.515625 C 23.8125 -7.785156 22.796875 -4.867188 20.765625 -2.765625 C 18.742188 -0.660156 16.035156 0.390625 12.640625 0.390625 C 9.203125 0.390625 6.46875 -0.65625 4.4375 -2.75 C 2.414062 -4.84375 1.40625 -7.726562 1.40625 -11.40625 Z M 6.203125 -11.5625 C 6.203125 -8.945312 6.804688 -6.960938 8.015625 -5.609375 C 9.222656 -4.265625 10.757812 -3.59375 12.625 -3.59375 C 14.488281 -3.59375 16.015625 -4.257812 17.203125 -5.59375 C 18.398438 -6.9375 19 -8.945312 19 -11.625 C 19 -14.28125 18.414062 -16.257812 17.25 -17.5625 C 16.09375 -18.863281 14.550781 -19.515625 12.625 -19.515625 C 10.695312 -19.515625 9.144531 -18.851562 7.96875 -17.53125 C 6.789062 -16.21875 6.203125 -14.226562 6.203125 -11.5625 Z M 6.203125 -11.5625 "/></g></g></g><g fill="#ffffff" fill-opacity="1"><g transform="translate(99.361518, 26.991317)"><g><path d="M 2.46875 0 L 2.46875 -22.921875 L 7.140625 -22.921875 L 7.140625 -3.890625 L 18.734375 -3.890625 L 18.734375 0 Z M 2.46875 0 "/></g></g></g><g fill="#ffffff" fill-opacity="1"><g transform="translate(144.903343, 26.991317)"><g><path d="M 2.3125 -23.109375 L 6.984375 -23.109375 L 6.984375 -10.59375 C 6.984375 -8.601562 7.039062 -7.316406 7.15625 -6.734375 C 7.351562 -5.785156 7.828125 -5.023438 8.578125 -4.453125 C 9.328125 -3.878906 10.359375 -3.59375 11.671875 -3.59375 C 12.992188 -3.59375 13.988281 -3.863281 14.65625 -4.40625 C 15.332031 -4.945312 15.738281 -5.609375 15.875 -6.390625 C 16.007812 -7.179688 16.078125 -8.492188 16.078125 -10.328125 L 16.078125 -23.109375 L 20.75 -23.109375 L 20.75 -10.96875 C 20.75 -8.195312 20.617188 -6.238281 20.359375 -5.09375 C 20.109375 -3.945312 19.644531 -2.976562 18.96875 -2.1875 C 18.289062 -1.40625 17.382812 -0.78125 16.25 -0.3125 C 15.113281 0.15625 13.632812 0.390625 11.8125 0.390625 C 9.601562 0.390625 7.925781 0.132812 6.78125 -0.375 C 5.644531 -0.882812 4.742188 -1.546875 4.078125 -2.359375 C 3.421875 -3.171875 2.988281 -4.023438 2.78125 -4.921875 C 2.46875 -6.242188 2.3125 -8.195312 2.3125 -10.78125 Z M 2.3125 -23.109375 "/></g></g></g><g fill="#ffffff" fill-opacity="1"><g transform="translate(194.037417, 26.991317)"><g><path d="M 7.546875 0 L 7.546875 -19.203125 L 0.6875 -19.203125 L 0.6875 -23.109375 L 19.0625 -23.109375 L 19.0625 -19.203125 L 12.21875 -19.203125 L 12.21875 0 Z M 7.546875 0 "/></g></g></g><g fill="#ffffff" fill-opacity="1"><g transform="translate(239.579243, 26.991317)"><g><path d="M 2.203125 0 L 2.203125 -23.109375 L 6.875 -23.109375 L 6.875 0 Z M 2.203125 0 "/></g></g></g><g fill="#ffffff" fill-opacity="1"><g transform="translate(274.375834, 26.991317)"><g><path d="M 1.40625 -11.40625 C 1.40625 -13.757812 1.753906 -15.738281 2.453125 -17.34375 C 2.984375 -18.519531 3.703125 -19.570312 4.609375 -20.5 C 5.515625 -21.4375 6.507812 -22.132812 7.59375 -22.59375 C 9.03125 -23.195312 10.691406 -23.5 12.578125 -23.5 C 15.984375 -23.5 18.707031 -22.441406 20.75 -20.328125 C 22.789062 -18.222656 23.8125 -15.285156 23.8125 -11.515625 C 23.8125 -7.785156 22.796875 -4.867188 20.765625 -2.765625 C 18.742188 -0.660156 16.035156 0.390625 12.640625 0.390625 C 9.203125 0.390625 6.46875 -0.65625 4.4375 -2.75 C 2.414062 -4.84375 1.40625 -7.726562 1.40625 -11.40625 Z M 6.203125 -11.5625 C 6.203125 -8.945312 6.804688 -6.960938 8.015625 -5.609375 C 9.222656 -4.265625 10.757812 -3.59375 12.625 -3.59375 C 14.488281 -3.59375 16.015625 -4.257812 17.203125 -5.59375 C 18.398438 -6.9375 19 -8.945312 19 -11.625 C 19 -14.28125 18.414062 -16.257812 17.25 -17.5625 C 16.09375 -18.863281 14.550781 -19.515625 12.625 -19.515625 C 10.695312 -19.515625 9.144531 -18.851562 7.96875 -17.53125 C 6.789062 -16.21875 6.203125 -14.226562 6.203125 -11.5625 Z M 6.203125 -11.5625 "/></g></g></g><g fill="#ffffff" fill-opacity="1"><g transform="translate(325.306032, 26.991317)"><g><path d="M 2.390625 0 L 2.390625 -23.109375 L 6.9375 -23.109375 L 16.390625 -7.671875 L 16.390625 -23.109375 L 20.734375 -23.109375 L 20.734375 0 L 16.046875 0 L 6.734375 -15.0625 L 6.734375 0 Z M 2.390625 0 "/></g></g></g><g fill="#ffffff" fill-opacity="1"><g transform="translate(374.440106, 26.991317)"><g><path d="M 1.171875 -7.515625 L 5.703125 -7.953125 C 5.972656 -6.429688 6.523438 -5.3125 7.359375 -4.59375 C 8.203125 -3.882812 9.332031 -3.53125 10.75 -3.53125 C 12.25 -3.53125 13.378906 -3.847656 14.140625 -4.484375 C 14.910156 -5.117188 15.296875 -5.863281 15.296875 -6.71875 C 15.296875 -7.257812 15.132812 -7.722656 14.8125 -8.109375 C 14.488281 -8.492188 13.925781 -8.828125 13.125 -9.109375 C 12.582031 -9.296875 11.335938 -9.632812 9.390625 -10.125 C 6.890625 -10.738281 5.132812 -11.5 4.125 -12.40625 C 2.707031 -13.675781 2 -15.226562 2 -17.0625 C 2 -18.226562 2.332031 -19.320312 3 -20.34375 C 3.664062 -21.375 4.625 -22.15625 5.875 -22.6875 C 7.132812 -23.226562 8.65625 -23.5 10.4375 -23.5 C 13.332031 -23.5 15.515625 -22.863281 16.984375 -21.59375 C 18.453125 -20.320312 19.222656 -18.625 19.296875 -16.5 L 14.625 -16.296875 C 14.425781 -17.484375 14 -18.335938 13.34375 -18.859375 C 12.6875 -19.378906 11.703125 -19.640625 10.390625 -19.640625 C 9.035156 -19.640625 7.972656 -19.359375 7.203125 -18.796875 C 6.710938 -18.441406 6.46875 -17.96875 6.46875 -17.375 C 6.46875 -16.820312 6.695312 -16.351562 7.15625 -15.96875 C 7.738281 -15.46875 9.164062 -14.953125 11.4375 -14.421875 C 13.707031 -13.890625 15.382812 -13.335938 16.46875 -12.765625 C 17.5625 -12.191406 18.414062 -11.40625 19.03125 -10.40625 C 19.644531 -9.414062 19.953125 -8.191406 19.953125 -6.734375 C 19.953125 -5.410156 19.582031 -4.171875 18.84375 -3.015625 C 18.113281 -1.859375 17.078125 -1 15.734375 -0.4375 C 14.390625 0.125 12.710938 0.40625 10.703125 0.40625 C 7.785156 0.40625 5.539062 -0.265625 3.96875 -1.609375 C 2.40625 -2.960938 1.472656 -4.929688 1.171875 -7.515625 Z M 1.171875 -7.515625 "/></g></g></g></g></g><g clip-path="url(#6a3b2c4763)"><path fill="#ffffff" d="M 101.40625 50.574219 L 71.136719 79.878906 L 131.675781 79.878906 Z M 101.40625 50.574219 " fill-opacity="1" fill-rule="nonzero"/></g><g clip-path="url(#bb16e11f74)"><path fill="#ffffff" d="M 83.796875 0.0703125 L 53.347656 29.554688 L 53.347656 22.324219 L 29.695312 22.324219 L 29.695312 52.449219 L 1.367188 79.878906 L 58.894531 79.878906 L 76.878906 62.464844 L 53.640625 62.464844 L 90.285156 26.988281 L 144.917969 79.878906 L 166.230469 79.878906 Z M 83.796875 0.0703125 " fill-opacity="1" fill-rule="nonzero"/></g></svg>